<?xml version="1.0" encoding="UTF-8"?>
<svg width="74px" height="78px" viewBox="0 0 74 78" version="1.1" xmlns="http://www.w3.org/2000/svg" xmlns:xlink="http://www.w3.org/1999/xlink">
    <title>Testimonial icon</title>
    <defs>
        <polygon id="path-1" points="0 0.0277264171 73.9663856 0.0277264171 73.9663856 78 0 78"></polygon>
    </defs>
    <g id="Symbols" stroke="none" stroke-width="1" fill="none" fill-rule="evenodd">
        <g id="Testimonial-Blade" transform="translate(-283.000000, -164.000000)">
            <g id="Group-31" transform="translate(163.000000, 164.000000)">
                <g id="Testimonial-icon" transform="translate(120.000000, 0.000000)">
                    <mask id="mask-2" fill="white">
                        <use xlink:href="#path-1"></use>
                    </mask>
                    <g id="Clip-2"></g>
                    <path d="M72.0887525,25.1132936 C70.5797329,20.619312 68.2347068,16.5061492 65.11921,12.8879711 C62.0028266,9.26899468 58.2713887,6.32702948 54.0288832,4.14271013 C49.6348309,1.88094964 44.8844824,0.536507472 39.9084257,0.145309928 C34.9323691,-0.245887615 30.0272492,0.340110338 25.3284911,1.88733654 C20.791759,3.38107247 16.6387307,5.7035085 12.9846784,8.78997728 C9.33143224,11.8764461 6.36095294,15.5720653 4.15546275,19.7738463 C1.87178083,24.124921 0.513501961,28.8296702 0.118512854,33.7579609 C-0.275670153,38.6822598 0.314395207,43.5371011 1.87419913,48.1875617 C3.27681351,52.3709005 5.40491808,56.2254737 8.20531024,59.6576334 L5.03975468,75.6192915 C4.89465664,76.3513898 5.17356732,77.1026487 5.76363268,77.5664972 C6.12637778,77.852311 6.5697329,78.000008 7.01711852,78.000008 C7.29683529,78.000008 7.57816427,77.9425259 7.84175904,77.8251666 L23.6203647,70.8162639 C26.9535891,72.0936436 30.4601251,72.8833038 34.0577503,73.1659241 C39.0330009,73.5571216 43.9389268,72.9711236 48.637685,71.4238974 C53.174417,69.9301615 57.3274453,67.6077255 60.9814976,64.5212567 C64.6347438,61.4347879 67.6052231,57.7391687 69.8107133,53.5373877 C70.9521512,51.3618504 71.8630444,49.0976149 72.5377503,46.7616866 C73.2116501,44.4256784 73.6501686,42.0170192 73.8476632,39.5532731 C74.2426523,34.6249824 73.6509747,29.7669476 72.0887525,25.1132936" id="Fill-1" fill="#EE3831" mask="url(#mask-2)"></path>
                    <path d="M25.9421909,26 C21.5550968,26.0313103 17.9866191,29.6513317 18,34.0547624 C18.0110602,37.6595518 20.388794,40.7048431 23.6553524,41.7084761 C22.793365,44.6944426 20.5935879,47.5276876 18.8260824,49.4417974 C18.1708058,50.1514515 18.9023609,51.2670803 19.810355,50.9419959 C24.2254047,49.361308 31.4161944,45.4384891 33.5650127,36.6471804 L33.5648529,36.6471002 C33.8466442,35.8266529 34,34.9461591 34,34.0295894 C34,29.5756524 30.3869533,25.9686985 25.9421909,26" id="Fill-4" fill="#EFE818" mask="url(#mask-2)"></path>
                    <path d="M56,34.0295894 C56,29.5756524 52.3870151,25.9686985 47.9421507,26 C43.5550347,26.0313103 39.986619,29.6513317 40,34.0547624 C40.0109804,37.6594716 42.388726,40.7048431 45.6553008,41.7084761 C44.7933091,44.6943625 42.5935209,47.5276876 40.8260066,49.4417974 C40.1706469,50.1514515 40.9023654,51.2670803 41.8102842,50.9419959 C46.2254358,49.361308 53.4161016,45.4384891 55.5650904,36.6471002 C55.5650904,36.6471002 55.5649306,36.6471002 55.5648507,36.6471002 C55.8466434,35.8266529 56,34.9461591 56,34.0295894" id="Fill-6" fill="#EFE818" mask="url(#mask-2)"></path>
                </g>
            </g>
        </g>
    </g>
</svg>